<mxfile host="app.diagrams.net" modified="2024-04-01T14:50:12.203Z" agent="Mozilla/5.0 (Windows NT 10.0; Win64; x64) AppleWebKit/537.36 (KHTML, like Gecko) Chrome/123.0.0.0 Safari/537.36" etag="4Q89rv7zZyVWk006NiuN" version="22.1.21" type="github">
  <diagram id="2XgLt1BLkxV7z1-QJJ_D" name="Page-1">
    <mxGraphModel dx="1050" dy="530" grid="1" gridSize="10" guides="1" tooltips="1" connect="1" arrows="1" fold="1" page="1" pageScale="1" pageWidth="850" pageHeight="1100" math="0" shadow="0">
      <root>
        <mxCell id="0" />
        <mxCell id="1" parent="0" />
        <mxCell id="Th31myJiunrDidtVk4U4-1" value="S3" style="shape=cylinder3;whiteSpace=wrap;html=1;boundedLbl=1;backgroundOutline=1;size=15;" parent="1" vertex="1">
          <mxGeometry x="480" y="455" width="80" height="110" as="geometry" />
        </mxCell>
        <mxCell id="c8qXOLnFKBhYFj-JvHV3-40" style="edgeStyle=orthogonalEdgeStyle;rounded=0;orthogonalLoop=1;jettySize=auto;html=1;" parent="1" source="Th31myJiunrDidtVk4U4-3" target="Th31myJiunrDidtVk4U4-1" edge="1">
          <mxGeometry relative="1" as="geometry" />
        </mxCell>
        <mxCell id="Th31myJiunrDidtVk4U4-3" value="" style="aspect=fixed;sketch=0;html=1;dashed=0;whitespace=wrap;fillColor=#2875E2;strokeColor=#ffffff;points=[[0.005,0.63,0],[0.1,0.2,0],[0.9,0.2,0],[0.5,0,0],[0.995,0.63,0],[0.72,0.99,0],[0.5,1,0],[0.28,0.99,0]];shape=mxgraph.kubernetes.icon2;kubernetesLabel=1;prIcon=api" parent="1" vertex="1">
          <mxGeometry x="270" y="450" width="125" height="120" as="geometry" />
        </mxCell>
        <mxCell id="Th31myJiunrDidtVk4U4-17" style="rounded=0;orthogonalLoop=1;jettySize=auto;html=1;entryX=0;entryY=0.5;entryDx=0;entryDy=0;" parent="1" source="Th31myJiunrDidtVk4U4-6" target="Th31myJiunrDidtVk4U4-11" edge="1">
          <mxGeometry relative="1" as="geometry" />
        </mxCell>
        <mxCell id="Th31myJiunrDidtVk4U4-18" style="rounded=0;orthogonalLoop=1;jettySize=auto;html=1;entryX=0;entryY=0.5;entryDx=0;entryDy=0;" parent="1" source="Th31myJiunrDidtVk4U4-6" target="Th31myJiunrDidtVk4U4-10" edge="1">
          <mxGeometry relative="1" as="geometry" />
        </mxCell>
        <mxCell id="Th31myJiunrDidtVk4U4-6" value="Signer" style="shape=umlActor;verticalLabelPosition=bottom;verticalAlign=top;html=1;outlineConnect=0;" parent="1" vertex="1">
          <mxGeometry x="50" y="250" width="30" height="60" as="geometry" />
        </mxCell>
        <mxCell id="Th31myJiunrDidtVk4U4-8" value="Init Doc" style="rounded=1;whiteSpace=wrap;html=1;" parent="1" vertex="1">
          <mxGeometry x="222.5" y="320" width="120" height="60" as="geometry" />
        </mxCell>
        <mxCell id="Th31myJiunrDidtVk4U4-14" style="rounded=0;orthogonalLoop=1;jettySize=auto;html=1;entryX=1;entryY=0.5;entryDx=0;entryDy=0;" parent="1" source="Th31myJiunrDidtVk4U4-9" target="Th31myJiunrDidtVk4U4-8" edge="1">
          <mxGeometry relative="1" as="geometry" />
        </mxCell>
        <mxCell id="Th31myJiunrDidtVk4U4-9" value="Doc Creater" style="shape=umlActor;verticalLabelPosition=bottom;verticalAlign=top;html=1;outlineConnect=0;" parent="1" vertex="1">
          <mxGeometry x="480" y="250" width="30" height="60" as="geometry" />
        </mxCell>
        <mxCell id="Th31myJiunrDidtVk4U4-20" value="" style="rounded=0;orthogonalLoop=1;jettySize=auto;html=1;" parent="1" source="Th31myJiunrDidtVk4U4-10" target="Th31myJiunrDidtVk4U4-19" edge="1">
          <mxGeometry relative="1" as="geometry" />
        </mxCell>
        <mxCell id="Th31myJiunrDidtVk4U4-23" style="edgeStyle=orthogonalEdgeStyle;rounded=0;orthogonalLoop=1;jettySize=auto;html=1;entryX=0;entryY=0.5;entryDx=0;entryDy=0;" parent="1" source="Th31myJiunrDidtVk4U4-10" target="Th31myJiunrDidtVk4U4-21" edge="1">
          <mxGeometry relative="1" as="geometry" />
        </mxCell>
        <mxCell id="Th31myJiunrDidtVk4U4-10" value="Signature Management" style="rounded=1;whiteSpace=wrap;html=1;" parent="1" vertex="1">
          <mxGeometry x="220" y="140" width="120" height="60" as="geometry" />
        </mxCell>
        <mxCell id="Th31myJiunrDidtVk4U4-11" value="Sign Doc" style="rounded=1;whiteSpace=wrap;html=1;" parent="1" vertex="1">
          <mxGeometry x="220" y="230" width="120" height="60" as="geometry" />
        </mxCell>
        <mxCell id="Th31myJiunrDidtVk4U4-19" value="Enroll Signature&lt;br&gt;- Import Image&lt;br&gt;- Import Private key" style="whiteSpace=wrap;html=1;rounded=1;align=left;" parent="1" vertex="1">
          <mxGeometry x="500" y="30" width="120" height="60" as="geometry" />
        </mxCell>
        <mxCell id="Th31myJiunrDidtVk4U4-21" value="Edit Signature" style="whiteSpace=wrap;html=1;rounded=1;align=left;" parent="1" vertex="1">
          <mxGeometry x="500" y="140" width="120" height="60" as="geometry" />
        </mxCell>
        <mxCell id="c8qXOLnFKBhYFj-JvHV3-1" value="Signature_T" style="swimlane;fontStyle=0;childLayout=stackLayout;horizontal=1;startSize=30;horizontalStack=0;resizeParent=1;resizeParentMax=0;resizeLast=0;collapsible=1;marginBottom=0;whiteSpace=wrap;html=1;" parent="1" vertex="1">
          <mxGeometry x="660" y="30" width="150" height="300" as="geometry" />
        </mxCell>
        <mxCell id="c8qXOLnFKBhYFj-JvHV3-2" value="ID" style="text;strokeColor=none;fillColor=none;align=left;verticalAlign=middle;spacingLeft=4;spacingRight=4;overflow=hidden;points=[[0,0.5],[1,0.5]];portConstraint=eastwest;rotatable=0;whiteSpace=wrap;html=1;" parent="c8qXOLnFKBhYFj-JvHV3-1" vertex="1">
          <mxGeometry y="30" width="150" height="30" as="geometry" />
        </mxCell>
        <mxCell id="c8qXOLnFKBhYFj-JvHV3-3" value="Onwer" style="text;strokeColor=none;fillColor=none;align=left;verticalAlign=middle;spacingLeft=4;spacingRight=4;overflow=hidden;points=[[0,0.5],[1,0.5]];portConstraint=eastwest;rotatable=0;whiteSpace=wrap;html=1;" parent="c8qXOLnFKBhYFj-JvHV3-1" vertex="1">
          <mxGeometry y="60" width="150" height="30" as="geometry" />
        </mxCell>
        <mxCell id="c8qXOLnFKBhYFj-JvHV3-38" value="GroupID" style="text;strokeColor=none;fillColor=none;align=left;verticalAlign=middle;spacingLeft=4;spacingRight=4;overflow=hidden;points=[[0,0.5],[1,0.5]];portConstraint=eastwest;rotatable=0;whiteSpace=wrap;html=1;" parent="c8qXOLnFKBhYFj-JvHV3-1" vertex="1">
          <mxGeometry y="90" width="150" height="30" as="geometry" />
        </mxCell>
        <mxCell id="c8qXOLnFKBhYFj-JvHV3-6" value="Picture" style="text;strokeColor=none;fillColor=none;align=left;verticalAlign=middle;spacingLeft=4;spacingRight=4;overflow=hidden;points=[[0,0.5],[1,0.5]];portConstraint=eastwest;rotatable=0;whiteSpace=wrap;html=1;" parent="c8qXOLnFKBhYFj-JvHV3-1" vertex="1">
          <mxGeometry y="120" width="150" height="30" as="geometry" />
        </mxCell>
        <mxCell id="c8qXOLnFKBhYFj-JvHV3-7" value="email" style="text;strokeColor=none;fillColor=none;align=left;verticalAlign=middle;spacingLeft=4;spacingRight=4;overflow=hidden;points=[[0,0.5],[1,0.5]];portConstraint=eastwest;rotatable=0;whiteSpace=wrap;html=1;" parent="c8qXOLnFKBhYFj-JvHV3-1" vertex="1">
          <mxGeometry y="150" width="150" height="30" as="geometry" />
        </mxCell>
        <mxCell id="c8qXOLnFKBhYFj-JvHV3-17" value="Tel" style="text;strokeColor=none;fillColor=none;align=left;verticalAlign=middle;spacingLeft=4;spacingRight=4;overflow=hidden;points=[[0,0.5],[1,0.5]];portConstraint=eastwest;rotatable=0;whiteSpace=wrap;html=1;" parent="c8qXOLnFKBhYFj-JvHV3-1" vertex="1">
          <mxGeometry y="180" width="150" height="30" as="geometry" />
        </mxCell>
        <mxCell id="c8qXOLnFKBhYFj-JvHV3-16" value="KeyStoreName(id)" style="text;strokeColor=none;fillColor=none;align=left;verticalAlign=middle;spacingLeft=4;spacingRight=4;overflow=hidden;points=[[0,0.5],[1,0.5]];portConstraint=eastwest;rotatable=0;whiteSpace=wrap;html=1;" parent="c8qXOLnFKBhYFj-JvHV3-1" vertex="1">
          <mxGeometry y="210" width="150" height="30" as="geometry" />
        </mxCell>
        <mxCell id="c8qXOLnFKBhYFj-JvHV3-5" value="KeyStorePassword(Opt.)" style="text;strokeColor=none;fillColor=none;align=left;verticalAlign=middle;spacingLeft=4;spacingRight=4;overflow=hidden;points=[[0,0.5],[1,0.5]];portConstraint=eastwest;rotatable=0;whiteSpace=wrap;html=1;" parent="c8qXOLnFKBhYFj-JvHV3-1" vertex="1">
          <mxGeometry y="240" width="150" height="30" as="geometry" />
        </mxCell>
        <mxCell id="c8qXOLnFKBhYFj-JvHV3-26" value="LastUpdate" style="text;strokeColor=none;fillColor=none;align=left;verticalAlign=middle;spacingLeft=4;spacingRight=4;overflow=hidden;points=[[0,0.5],[1,0.5]];portConstraint=eastwest;rotatable=0;whiteSpace=wrap;html=1;" parent="c8qXOLnFKBhYFj-JvHV3-1" vertex="1">
          <mxGeometry y="270" width="150" height="30" as="geometry" />
        </mxCell>
        <mxCell id="c8qXOLnFKBhYFj-JvHV3-8" value="Document_T" style="swimlane;fontStyle=0;childLayout=stackLayout;horizontal=1;startSize=30;horizontalStack=0;resizeParent=1;resizeParentMax=0;resizeLast=0;collapsible=1;marginBottom=0;whiteSpace=wrap;html=1;" parent="1" vertex="1">
          <mxGeometry x="660" y="340" width="380" height="270" as="geometry" />
        </mxCell>
        <mxCell id="c8qXOLnFKBhYFj-JvHV3-9" value="ID - autorun" style="text;strokeColor=none;fillColor=none;align=left;verticalAlign=middle;spacingLeft=4;spacingRight=4;overflow=hidden;points=[[0,0.5],[1,0.5]];portConstraint=eastwest;rotatable=0;whiteSpace=wrap;html=1;" parent="c8qXOLnFKBhYFj-JvHV3-8" vertex="1">
          <mxGeometry y="30" width="380" height="30" as="geometry" />
        </mxCell>
        <mxCell id="c8qXOLnFKBhYFj-JvHV3-15" value="Creator [Who import this doc]" style="text;strokeColor=none;fillColor=none;align=left;verticalAlign=middle;spacingLeft=4;spacingRight=4;overflow=hidden;points=[[0,0.5],[1,0.5]];portConstraint=eastwest;rotatable=0;whiteSpace=wrap;html=1;" parent="c8qXOLnFKBhYFj-JvHV3-8" vertex="1">
          <mxGeometry y="60" width="380" height="30" as="geometry" />
        </mxCell>
        <mxCell id="c8qXOLnFKBhYFj-JvHV3-14" value="Owner [Who recieve this doc when finish or reject]" style="text;strokeColor=none;fillColor=none;align=left;verticalAlign=middle;spacingLeft=4;spacingRight=4;overflow=hidden;points=[[0,0.5],[1,0.5]];portConstraint=eastwest;rotatable=0;whiteSpace=wrap;html=1;" parent="c8qXOLnFKBhYFj-JvHV3-8" vertex="1">
          <mxGeometry y="90" width="380" height="30" as="geometry" />
        </mxCell>
        <mxCell id="c8qXOLnFKBhYFj-JvHV3-10" value="Type [automate workflow]&amp;nbsp;" style="text;strokeColor=none;fillColor=none;align=left;verticalAlign=middle;spacingLeft=4;spacingRight=4;overflow=hidden;points=[[0,0.5],[1,0.5]];portConstraint=eastwest;rotatable=0;whiteSpace=wrap;html=1;" parent="c8qXOLnFKBhYFj-JvHV3-8" vertex="1">
          <mxGeometry y="120" width="380" height="30" as="geometry" />
        </mxCell>
        <mxCell id="c8qXOLnFKBhYFj-JvHV3-11" value="StatusCode [0=SignedComplete, 2=WaitforNextSigner,-1=Rejected]" style="text;strokeColor=none;fillColor=none;align=left;verticalAlign=middle;spacingLeft=4;spacingRight=4;overflow=hidden;points=[[0,0.5],[1,0.5]];portConstraint=eastwest;rotatable=0;whiteSpace=wrap;html=1;" parent="c8qXOLnFKBhYFj-JvHV3-8" vertex="1">
          <mxGeometry y="150" width="380" height="30" as="geometry" />
        </mxCell>
        <mxCell id="c8qXOLnFKBhYFj-JvHV3-27" value="NextStep (ID of Next Signer)" style="text;strokeColor=none;fillColor=none;align=left;verticalAlign=middle;spacingLeft=4;spacingRight=4;overflow=hidden;points=[[0,0.5],[1,0.5]];portConstraint=eastwest;rotatable=0;whiteSpace=wrap;html=1;" parent="c8qXOLnFKBhYFj-JvHV3-8" vertex="1">
          <mxGeometry y="180" width="380" height="30" as="geometry" />
        </mxCell>
        <mxCell id="c8qXOLnFKBhYFj-JvHV3-28" value="ImportTime" style="text;strokeColor=none;fillColor=none;align=left;verticalAlign=middle;spacingLeft=4;spacingRight=4;overflow=hidden;points=[[0,0.5],[1,0.5]];portConstraint=eastwest;rotatable=0;whiteSpace=wrap;html=1;" parent="c8qXOLnFKBhYFj-JvHV3-8" vertex="1">
          <mxGeometry y="210" width="380" height="30" as="geometry" />
        </mxCell>
        <mxCell id="c8qXOLnFKBhYFj-JvHV3-12" value="LastUpdate" style="text;strokeColor=none;fillColor=none;align=left;verticalAlign=middle;spacingLeft=4;spacingRight=4;overflow=hidden;points=[[0,0.5],[1,0.5]];portConstraint=eastwest;rotatable=0;whiteSpace=wrap;html=1;" parent="c8qXOLnFKBhYFj-JvHV3-8" vertex="1">
          <mxGeometry y="240" width="380" height="30" as="geometry" />
        </mxCell>
        <mxCell id="c8qXOLnFKBhYFj-JvHV3-19" value="Sign_T" style="swimlane;fontStyle=0;childLayout=stackLayout;horizontal=1;startSize=30;horizontalStack=0;resizeParent=1;resizeParentMax=0;resizeLast=0;collapsible=1;marginBottom=0;whiteSpace=wrap;html=1;" parent="1" vertex="1">
          <mxGeometry x="1200" y="340" width="130" height="150" as="geometry" />
        </mxCell>
        <mxCell id="c8qXOLnFKBhYFj-JvHV3-20" value="ID - autorun" style="text;strokeColor=none;fillColor=none;align=left;verticalAlign=middle;spacingLeft=4;spacingRight=4;overflow=hidden;points=[[0,0.5],[1,0.5]];portConstraint=eastwest;rotatable=0;whiteSpace=wrap;html=1;" parent="c8qXOLnFKBhYFj-JvHV3-19" vertex="1">
          <mxGeometry y="30" width="130" height="30" as="geometry" />
        </mxCell>
        <mxCell id="c8qXOLnFKBhYFj-JvHV3-21" value="Doc_ID" style="text;strokeColor=none;fillColor=none;align=left;verticalAlign=middle;spacingLeft=4;spacingRight=4;overflow=hidden;points=[[0,0.5],[1,0.5]];portConstraint=eastwest;rotatable=0;whiteSpace=wrap;html=1;" parent="c8qXOLnFKBhYFj-JvHV3-19" vertex="1">
          <mxGeometry y="60" width="130" height="30" as="geometry" />
        </mxCell>
        <mxCell id="c8qXOLnFKBhYFj-JvHV3-22" value="Signature_ID" style="text;strokeColor=none;fillColor=none;align=left;verticalAlign=middle;spacingLeft=4;spacingRight=4;overflow=hidden;points=[[0,0.5],[1,0.5]];portConstraint=eastwest;rotatable=0;whiteSpace=wrap;html=1;" parent="c8qXOLnFKBhYFj-JvHV3-19" vertex="1">
          <mxGeometry y="90" width="130" height="30" as="geometry" />
        </mxCell>
        <mxCell id="c8qXOLnFKBhYFj-JvHV3-23" value="TimeStamp" style="text;strokeColor=none;fillColor=none;align=left;verticalAlign=middle;spacingLeft=4;spacingRight=4;overflow=hidden;points=[[0,0.5],[1,0.5]];portConstraint=eastwest;rotatable=0;whiteSpace=wrap;html=1;" parent="c8qXOLnFKBhYFj-JvHV3-19" vertex="1">
          <mxGeometry y="120" width="130" height="30" as="geometry" />
        </mxCell>
        <mxCell id="c8qXOLnFKBhYFj-JvHV3-29" value="DocType_T" style="swimlane;fontStyle=0;childLayout=stackLayout;horizontal=1;startSize=30;horizontalStack=0;resizeParent=1;resizeParentMax=0;resizeLast=0;collapsible=1;marginBottom=0;whiteSpace=wrap;html=1;" parent="1" vertex="1">
          <mxGeometry x="870" y="30" width="460" height="210" as="geometry" />
        </mxCell>
        <mxCell id="c8qXOLnFKBhYFj-JvHV3-30" value="ID - autorun" style="text;strokeColor=none;fillColor=none;align=left;verticalAlign=middle;spacingLeft=4;spacingRight=4;overflow=hidden;points=[[0,0.5],[1,0.5]];portConstraint=eastwest;rotatable=0;whiteSpace=wrap;html=1;" parent="c8qXOLnFKBhYFj-JvHV3-29" vertex="1">
          <mxGeometry y="30" width="460" height="30" as="geometry" />
        </mxCell>
        <mxCell id="c8qXOLnFKBhYFj-JvHV3-31" value="TypeName" style="text;strokeColor=none;fillColor=none;align=left;verticalAlign=middle;spacingLeft=4;spacingRight=4;overflow=hidden;points=[[0,0.5],[1,0.5]];portConstraint=eastwest;rotatable=0;whiteSpace=wrap;html=1;" parent="c8qXOLnFKBhYFj-JvHV3-29" vertex="1">
          <mxGeometry y="60" width="460" height="30" as="geometry" />
        </mxCell>
        <mxCell id="c8qXOLnFKBhYFj-JvHV3-32" value="NextStep" style="text;strokeColor=none;fillColor=none;align=left;verticalAlign=middle;spacingLeft=4;spacingRight=4;overflow=hidden;points=[[0,0.5],[1,0.5]];portConstraint=eastwest;rotatable=0;whiteSpace=wrap;html=1;" parent="c8qXOLnFKBhYFj-JvHV3-29" vertex="1">
          <mxGeometry y="90" width="460" height="30" as="geometry" />
        </mxCell>
        <mxCell id="gopspj_rFvSjn7bzqHfU-2" value="Sign Order" style="text;strokeColor=none;fillColor=none;align=left;verticalAlign=middle;spacingLeft=4;spacingRight=4;overflow=hidden;points=[[0,0.5],[1,0.5]];portConstraint=eastwest;rotatable=0;whiteSpace=wrap;html=1;" parent="c8qXOLnFKBhYFj-JvHV3-29" vertex="1">
          <mxGeometry y="120" width="460" height="30" as="geometry" />
        </mxCell>
        <mxCell id="gopspj_rFvSjn7bzqHfU-1" value="SignPosition" style="text;strokeColor=none;fillColor=none;align=left;verticalAlign=middle;spacingLeft=4;spacingRight=4;overflow=hidden;points=[[0,0.5],[1,0.5]];portConstraint=eastwest;rotatable=0;whiteSpace=wrap;html=1;" parent="c8qXOLnFKBhYFj-JvHV3-29" vertex="1">
          <mxGeometry y="150" width="460" height="30" as="geometry" />
        </mxCell>
        <mxCell id="c8qXOLnFKBhYFj-JvHV3-37" value="CurrentGroupID" style="text;strokeColor=none;fillColor=none;align=left;verticalAlign=middle;spacingLeft=4;spacingRight=4;overflow=hidden;points=[[0,0.5],[1,0.5]];portConstraint=eastwest;rotatable=0;whiteSpace=wrap;html=1;" parent="c8qXOLnFKBhYFj-JvHV3-29" vertex="1">
          <mxGeometry y="180" width="460" height="30" as="geometry" />
        </mxCell>
        <mxCell id="c8qXOLnFKBhYFj-JvHV3-41" value="&lt;div style=&quot;text-align: left;&quot;&gt;&lt;span style=&quot;background-color: initial;&quot;&gt;&lt;br&gt;&lt;/span&gt;&lt;/div&gt;&lt;div style=&quot;text-align: left;&quot;&gt;&lt;span style=&quot;background-color: initial;&quot;&gt;&lt;br&gt;&lt;/span&gt;&lt;/div&gt;&lt;div style=&quot;text-align: left;&quot;&gt;&lt;span style=&quot;background-color: initial;&quot;&gt;1. Import Signature Key&lt;/span&gt;&lt;/div&gt;&lt;div style=&quot;text-align: left;&quot;&gt;&lt;span style=&quot;background-color: initial;&quot;&gt;2. Import Signature Image&lt;/span&gt;&lt;/div&gt;&lt;div style=&quot;text-align: left;&quot;&gt;&lt;span style=&quot;background-color: initial;&quot;&gt;3. Upload Document(WithSigned)&lt;/span&gt;&lt;/div&gt;&lt;div style=&quot;text-align: left;&quot;&gt;&lt;span style=&quot;background-color: initial;&quot;&gt;4. Get Document Status&lt;/span&gt;&lt;/div&gt;&lt;div style=&quot;text-align: left;&quot;&gt;&lt;span style=&quot;background-color: initial;&quot;&gt;5. Valiate Document&lt;/span&gt;&lt;/div&gt;&lt;div style=&quot;text-align: left;&quot;&gt;&lt;span style=&quot;background-color: initial;&quot;&gt;6. Sign(approve Doc)&lt;/span&gt;&lt;/div&gt;&lt;div style=&quot;text-align: left;&quot;&gt;&lt;span style=&quot;background-color: initial;&quot;&gt;7. Download Doc&lt;/span&gt;&lt;/div&gt;&lt;div style=&quot;text-align: left;&quot;&gt;&lt;span style=&quot;background-color: initial;&quot;&gt;8. Add Doc template&lt;br&gt;9. get doc list&lt;/span&gt;&lt;/div&gt;" style="shape=internalStorage;whiteSpace=wrap;html=1;backgroundOutline=1;dx=20;dy=20;" parent="1" vertex="1">
          <mxGeometry x="270" y="580" width="290" height="170" as="geometry" />
        </mxCell>
        <mxCell id="c8qXOLnFKBhYFj-JvHV3-42" style="edgeStyle=orthogonalEdgeStyle;rounded=0;orthogonalLoop=1;jettySize=auto;html=1;endArrow=ERmany;endFill=0;" parent="1" source="c8qXOLnFKBhYFj-JvHV3-9" target="c8qXOLnFKBhYFj-JvHV3-21" edge="1">
          <mxGeometry relative="1" as="geometry" />
        </mxCell>
      </root>
    </mxGraphModel>
  </diagram>
</mxfile>
